REM DIRINDEX 1\2,1\3,1\4,1\5
REM DIRNAME folder01,folder02,folder03,folder04,folder05
TITLE ""
FILE "1800_165.mp3" MP3
  TRACK 01 AUDIO
    TITLE "2:cjc044_5430"
    INDEX 01 00:00:00
  TRACK 02 AUDIO
    TITLE "0:"
    INDEX 01 00:01:15
  TRACK 03 AUDIO
    TITLE "3:cjc044_5431"
    INDEX 01 00:01:64
  TRACK 04 AUDIO
    TITLE "0:"
    INDEX 01 00:03:15
  TRACK 05 AUDIO
    TITLE "4:cjc044_5432"
    INDEX 01 00:03:63
  TRACK 06 AUDIO
    TITLE "0:"
    INDEX 01 00:05:12
  TRACK 07 AUDIO
    TITLE "2:cjc044_5433"
    INDEX 01 00:06:65
  TRACK 08 AUDIO
    TITLE "0:"
    INDEX 01 00:08:03
  TRACK 09 AUDIO
    TITLE "3:cjc044_5434"
    INDEX 01 00:08:50
  TRACK 10 AUDIO
    TITLE "0:"
    INDEX 01 00:09:67
  TRACK 11 AUDIO
    TITLE "4:cjc044_5435"
    INDEX 01 00:10:39
  TRACK 12 AUDIO
    TITLE "0:"
    INDEX 01 00:11:52
  TRACK 13 AUDIO
    TITLE "2:cjc044_5436"
    INDEX 01 00:13:30
  TRACK 14 AUDIO
    TITLE "0:"
    INDEX 01 00:14:43
  TRACK 15 AUDIO
    TITLE "3:cjc044_5437"
    INDEX 01 00:15:17
  TRACK 16 AUDIO
    TITLE "0:"
    INDEX 01 00:16:18
  TRACK 17 AUDIO
    TITLE "4:cjc044_5438"
    INDEX 01 00:16:71
  TRACK 18 AUDIO
    TITLE "0:"
    INDEX 01 00:18:09
  TRACK 19 AUDIO
    TITLE "2:cjc044_5439"
    INDEX 01 00:19:58
  TRACK 20 AUDIO
    TITLE "0:"
    INDEX 01 00:20:61
  TRACK 21 AUDIO
    TITLE "3:cjc044_5440"
    INDEX 01 00:21:35
  TRACK 22 AUDIO
    TITLE "0:"
    INDEX 01 00:23:36
  TRACK 23 AUDIO
    TITLE "4:cjc044_5441"
    INDEX 01 00:24:10
  TRACK 24 AUDIO
    TITLE "0:"
    INDEX 01 00:25:15
  TRACK 25 AUDIO
    TITLE "2:cjc044_5442"
    INDEX 01 00:26:66
  TRACK 26 AUDIO
    TITLE "0:"
    INDEX 01 00:28:06
  TRACK 27 AUDIO
    TITLE "3:cjc044_5443"
    INDEX 01 00:28:59
  TRACK 28 AUDIO
    TITLE "0:"
    INDEX 01 00:29:52
  TRACK 29 AUDIO
    TITLE "4:cjc044_5444"
    INDEX 01 00:30:24
  TRACK 30 AUDIO
    TITLE "0:"
    INDEX 01 00:31:43
  TRACK 31 AUDIO
    TITLE "2:cjc044_5445"
    INDEX 01 00:33:17
  TRACK 32 AUDIO
    TITLE "0:"
    INDEX 01 00:34:22
  TRACK 33 AUDIO
    TITLE "3:cjc044_5446"
    INDEX 01 00:34:69
  TRACK 34 AUDIO
    TITLE "0:"
    INDEX 01 00:36:72
  TRACK 35 AUDIO
    TITLE "4:cjc044_5447"
    INDEX 01 00:37:42
  TRACK 36 AUDIO
    TITLE "0:"
    INDEX 01 00:38:51
  TRACK 37 AUDIO
    TITLE "2:cjc044_5448"
    INDEX 01 00:40:26
  TRACK 38 AUDIO
    TITLE "0:"
    INDEX 01 00:41:42
  TRACK 39 AUDIO
    TITLE "3:cjc044_5449"
    INDEX 01 00:42:10
  TRACK 40 AUDIO
    TITLE "0:"
    INDEX 01 00:43:13
  TRACK 41 AUDIO
    TITLE "4:cjc044_5450"
    INDEX 01 00:43:58
  TRACK 42 AUDIO
    TITLE "0:"
    INDEX 01 00:45:00
  TRACK 43 AUDIO
    TITLE "2:cjc044_5451"
    INDEX 01 00:46:47
  TRACK 44 AUDIO
    TITLE "0:"
    INDEX 01 00:47:52
  TRACK 45 AUDIO
    TITLE "3:cjc044_5452"
    INDEX 01 00:48:26
  TRACK 46 AUDIO
    TITLE "0:"
    INDEX 01 00:49:27
  TRACK 47 AUDIO
    TITLE "4:cjc044_5453"
    INDEX 01 00:49:74
  TRACK 48 AUDIO
    TITLE "0:"
    INDEX 01 00:51:09
  TRACK 49 AUDIO
    TITLE "2:cjc044_5454"
    INDEX 01 00:52:59
  TRACK 50 AUDIO
    TITLE "0:"
    INDEX 01 00:54:09
  TRACK 51 AUDIO
    TITLE "3:cjc044_5455"
    INDEX 01 00:54:64
  TRACK 52 AUDIO
    TITLE "0:"
    INDEX 01 00:56:16
  TRACK 53 AUDIO
    TITLE "4:cjc044_5456"
    INDEX 01 00:56:61
  TRACK 54 AUDIO
    TITLE "0:"
    INDEX 01 00:58:15
  TRACK 55 AUDIO
    TITLE "2:cjc044_5457"
    INDEX 01 00:59:65
  TRACK 56 AUDIO
    TITLE "0:"
    INDEX 01 01:01:09
  TRACK 57 AUDIO
    TITLE "3:cjc044_5458"
    INDEX 01 01:01:58
  TRACK 58 AUDIO
    TITLE "0:"
    INDEX 01 01:02:48
  TRACK 59 AUDIO
    TITLE "4:cjc044_5459"
    INDEX 01 01:03:22
  TRACK 60 AUDIO
    TITLE "0:"
    INDEX 01 01:04:43
  TRACK 61 AUDIO
    TITLE "2:cjc044_5460"
    INDEX 01 01:06:16
  TRACK 62 AUDIO
    TITLE "0:"
    INDEX 01 01:07:33
  TRACK 63 AUDIO
    TITLE "3:cjc044_5461"
    INDEX 01 01:08:07
  TRACK 64 AUDIO
    TITLE "0:"
    INDEX 01 01:09:10
  TRACK 65 AUDIO
    TITLE "4:cjc044_5462"
    INDEX 01 01:09:59
  TRACK 66 AUDIO
    TITLE "0:"
    INDEX 01 01:11:03
  TRACK 67 AUDIO
    TITLE "2:cjc044_5463"
    INDEX 01 01:12:52
  TRACK 68 AUDIO
    TITLE "0:"
    INDEX 01 01:14:06
  TRACK 69 AUDIO
    TITLE "3:cjc044_5464"
    INDEX 01 01:14:53
  TRACK 70 AUDIO
    TITLE "0:"
    INDEX 01 01:15:70
  TRACK 71 AUDIO
    TITLE "4:cjc044_5465"
    INDEX 01 01:16:42
  TRACK 72 AUDIO
    TITLE "0:"
    INDEX 01 01:17:69
  TRACK 73 AUDIO
    TITLE "2:cjc044_5466"
    INDEX 01 01:19:40
  TRACK 74 AUDIO
    TITLE "0:"
    INDEX 01 01:20:63
  TRACK 75 AUDIO
    TITLE "3:cjc044_5467"
    INDEX 01 01:21:39
  TRACK 76 AUDIO
    TITLE "0:"
    INDEX 01 01:22:58
  TRACK 77 AUDIO
    TITLE "4:cjc044_5468"
    INDEX 01 01:23:30
  TRACK 78 AUDIO
    TITLE "0:"
    INDEX 01 01:24:51
  TRACK 79 AUDIO
    TITLE "2:cjc044_5469"
    INDEX 01 01:26:27
  TRACK 80 AUDIO
    TITLE "0:"
    INDEX 01 01:27:61
  TRACK 81 AUDIO
    TITLE "3:cjc044_5470"
    INDEX 01 01:28:35
  TRACK 82 AUDIO
    TITLE "0:"
    INDEX 01 01:29:39
  TRACK 83 AUDIO
    TITLE "4:cjc044_5471"
    INDEX 01 01:30:11
  TRACK 84 AUDIO
    TITLE "0:"
    INDEX 01 01:31:43
  TRACK 85 AUDIO
    TITLE "2:cjc044_5472"
    INDEX 01 01:33:15
  TRACK 86 AUDIO
    TITLE "0:"
    INDEX 01 01:34:52
  TRACK 87 AUDIO
    TITLE "3:cjc044_5473"
    INDEX 01 01:35:24
  TRACK 88 AUDIO
    TITLE "0:"
    INDEX 01 01:36:45
  TRACK 89 AUDIO
    TITLE "4:cjc044_5474"
    INDEX 01 01:37:17
  TRACK 90 AUDIO
    TITLE "0:"
    INDEX 01 01:38:51
  TRACK 91 AUDIO
    TITLE "2:cjc044_5475"
    INDEX 01 01:40:27
  TRACK 92 AUDIO
    TITLE "0:"
    INDEX 01 01:41:63
  TRACK 93 AUDIO
    TITLE "3:cjc044_5476"
    INDEX 01 01:42:31
  TRACK 94 AUDIO
    TITLE "0:"
    INDEX 01 01:43:51
  TRACK 95 AUDIO
    TITLE "4:cjc044_5477"
    INDEX 01 01:44:23
  TRACK 96 AUDIO
    TITLE "0:"
    INDEX 01 01:45:57
  TRACK 97 AUDIO
    TITLE "2:cjc044_5478"
    INDEX 01 01:47:29
  TRACK 98 AUDIO
    TITLE "0:"
    INDEX 01 01:49:00
  TRACK 99 AUDIO
    TITLE "3:cjc044_5479"
    INDEX 01 01:49:45
  TRACK 100 AUDIO
    TITLE "0:"
    INDEX 01 01:50:60
  TRACK 101 AUDIO
    TITLE "4:cjc044_5480"
    INDEX 01 01:51:34
  TRACK 102 AUDIO
    TITLE "0:"
    INDEX 01 01:53:06
  TRACK 103 AUDIO
    TITLE "2:cjc044_5481"
    INDEX 01 01:54:56
  TRACK 104 AUDIO
    TITLE "0:"
    INDEX 01 01:56:00
  TRACK 105 AUDIO
    TITLE "3:cjc044_5482"
    INDEX 01 01:56:49
  TRACK 106 AUDIO
    TITLE "0:"
    INDEX 01 01:57:66
  TRACK 107 AUDIO
    TITLE "4:cjc044_5483"
    INDEX 01 01:58:36
  TRACK 108 AUDIO
    TITLE "0:"
    INDEX 01 01:59:57
